PathFileType	4	(X/Y/Z)	G:\GRF\jawan data\CompiledGRF\03. Mohit Kumar\0231~ac~Walking 04_markers.trc
DataRate	CameraRate	NumFrames	NumMarkers	Units	OrigDataRate	OrigDataStartFrame	OrigNumFrames
100.000000	100.000000	11	18	mm	100.000000	672	1076
Frame#	Time	c7			r should			l should			sacrum			r asis			r bar 1			r knee 1			r bar 2			r mall			r heel			r met			l asis			l bar 1			l knee 1			l bar 2			l mall			l heel			l met			
		X1	Y1	Z1	X2	Y2	Z2	X3	Y3	Z3	X4	Y4	Z4	X5	Y5	Z5	X6	Y6	Z6	X7	Y7	Z7	X8	Y8	Z8	X9	Y9	Z9	X10	Y10	Z10	X11	Y11	Z11	X12	Y12	Z12	X13	Y13	Z13	X14	Y14	Z14	X15	Y15	Z15	X16	Y16	Z16	X17	Y17	Z17	X18	Y18	Z18	

673	6.72	804.2025756835938	1514.780395507813	262.3344116210938	901.6907348632813	1455.013061523438	426.658935546875	857.481201171875	1467.56591796875	83.63167572021484	745.4650268554688	1048.631713867188	245.9251861572266	935.5643310546875	1016.63330078125	360.9646911621094	855.6876220703125	603.68017578125	415.5841064453125	861.60498046875	516.9899291992188	359.9390258789063	786.38330078125	196.9106597900391	373.455810546875	783.8551025390625	71.60586547851563	307.4773864746094	723.2745971679688	38.97304916381836	262.46826171875	932.3607788085938	35.58707809448242	294.1590881347656	917.6217651367188	1027.049438476563	113.8061599731445	995.783203125	627.425048828125	16.01688575744629	1034.652465820313	539.0999145507813	63.41814422607422	859.9349365234375	315.8521728515625	31.68213272094727	769.9188842773438	169.8097686767578	105.6177825927734	702.194091796875	161.2157592773438	167.2885284423828	875.8136596679688	77.52231597900391	117.8726272583008	
674	6.73	813.54638671875	1514.358032226563	262.4999694824219	910.6484375	1454.343383789063	426.8941955566406	866.400146484375	1466.73779296875	83.78934478759766	753.625732421875	1048.297485351563	245.6484680175781	943.5787963867188	1015.944030761719	361.0292663574219	859.6826782226563	603.4523315429688	415.7594299316406	864.4024047851563	516.6683349609375	359.9955749511719	786.9711303710938	197.1527709960938	373.4586791992188	783.9786987304688	71.79532623291016	307.4583435058594	723.5440673828125	39.19832229614258	262.3851623535156	932.3680419921875	35.49075698852539	294.1924743652344	926.3441162109375	1026.889038085938	114.0052719116211	1008.820068359375	628.9091186523438	16.68362808227539	1049.130859375	541.5126953125	64.45406341552734	883.2715454101563	311.1180114746094	31.71547889709473	799.865234375	160.8881988525391	105.2889251708984	732.2736206054688	148.7053527832031	166.9858703613281	910.335205078125	74.30448913574219	116.9977340698242	
675	6.74	822.8237915039063	1513.914184570313	262.6179504394531	919.6492919921875	1453.5166015625	426.9953308105469	875.4608764648438	1465.83349609375	83.92916870117188	761.2859497070313	1047.955322265625	245.4815979003906	951.597412109375	1015.150695800781	361.0630493164063	863.7255859375	603.249755859375	415.9488525390625	867.3862915039063	516.4247436523438	360.2073059082031	787.6139526367188	197.3674926757813	373.5020141601563	784.10986328125	71.93209838867188	307.4215698242188	723.7650756835938	39.4499397277832	262.3743286132813	932.3345336914063	35.41285705566406	294.19970703125	934.4102172851563	1026.445068359375	114.0411605834961	1020.849365234375	629.9495849609375	17.42393493652344	1062.497192382813	543.50927734375	65.37451171875	906.3465576171875	306.4805908203125	31.84870910644531	830.266845703125	152.0176086425781	104.8864364624023	762.7957763671875	136.5715484619141	166.4879608154297	944.9085083007813	71.1788330078125	116.2439498901367	
676	6.75	831.9490966796875	1513.384033203125	262.7118225097656	928.7586059570313	1452.568481445313	427.083984375	884.5421752929688	1464.842651367188	84.02078247070313	769.5484008789063	1047.511352539063	245.3979187011719	959.5643310546875	1014.273986816406	361.078857421875	867.9450073242188	603.0738525390625	416.2174377441406	870.3251953125	516.1941528320313	360.4717407226563	788.28369140625	197.5989227294922	373.5954895019531	784.267333984375	72.11543273925781	307.3926696777344	723.6875610351563	39.82583999633789	262.2963256835938	932.407470703125	35.35382461547852	294.2138977050781	942.6178588867188	1026.005859375	114.1299285888672	1031.712524414063	630.6409301757813	18.15726280212402	1075.302612304688	545.2709350585938	66.15126800537109	929.2573852539063	301.9637756347656	32.02031707763672	861.3030395507813	143.2796478271484	104.4736022949219	794.0301513671875	124.8052139282227	165.9790649414063	979.4998168945313	68.20552825927734	115.5974502563477	
677	6.76	841.2115478515625	1512.6240234375	262.5674133300781	937.7685546875	1451.481811523438	427.0512084960938	893.5664672851563	1463.821411132813	83.99088287353516	777.8975830078125	1046.8974609375	245.3049011230469	967.4833984375	1013.349548339844	361.1009521484375	872.4027709960938	602.931396484375	416.3841552734375	873.342041015625	515.8463745117188	360.6781311035156	789.10888671875	197.9376678466797	373.6583557128906	784.4871215820313	72.31205749511719	307.4085083007813	723.8539428710938	40.09947967529297	262.2369079589844	932.5006103515625	35.31562423706055	294.2628479003906	950.5343627929688	1025.346801757813	114.210693359375	1041.747680664063	630.9260864257813	19.0352840423584	1087.349365234375	546.6470947265625	66.98350524902344	951.863037109375	297.2757263183594	32.23400115966797	892.6316528320313	134.6997528076172	103.9779205322266	825.9284057617188	113.4259033203125	165.4564666748047	1014.190551757813	65.41168975830078	115.1297225952148	
678	6.77	850.8599243164063	1511.744018554688	262.4963684082031	947.0132446289063	1450.313232421875	426.9965209960938	902.9722290039063	1462.81787109375	83.85800933837891	785.9810791015625	1046.25537109375	245.2408447265625	975.4459838867188	1012.355346679688	361.1558532714844	876.7872924804688	602.6738891601563	416.6764526367188	876.42822265625	515.5510864257813	360.8595581054688	789.9763793945313	198.3374938964844	373.7234191894531	784.6454467773438	72.50969696044922	307.4031677246094	723.9574584960938	40.464599609375	262.1678161621094	932.5838623046875	35.26988983154297	294.3179931640625	958.35595703125	1024.556396484375	114.3303070068359	1050.845947265625	630.71630859375	20.04603576660156	1098.646728515625	547.6210327148438	67.90966796875	974.3988647460938	292.6966247558594	32.45652008056641	924.0326538085938	126.6814346313477	103.4948348999023	858.0667724609375	102.5628356933594	165.0112457275391	1048.981201171875	63.00656509399414	114.8691940307617	
679	6.78	859.7125854492188	1510.94677734375	262.374755859375	955.9216918945313	1449.093139648438	426.8326721191406	911.9456787109375	1461.740356445313	83.69457244873047	794.1287841796875	1045.433349609375	245.1146850585938	983.4092407226563	1011.290100097656	361.2857666015625	880.9827270507813	602.3648071289063	416.8552856445313	879.7802734375	515.373046875	361.0703430175781	790.7564086914063	198.7525177001953	373.7384948730469	784.7135009765625	72.77653503417969	307.3336791992188	723.7473754882813	41.05913543701172	262.0297546386719	932.6752319335938	35.22991943359375	294.303955078125	966.1888427734375	1023.718688964844	114.3154602050781	1059.142333984375	630.0432739257813	21.04913139343262	1109.1943359375	548.200439453125	68.92765808105469	996.84814453125	288.1500244140625	32.76073837280273	955.9124755859375	119.3746948242188	103.156494140625	890.8592529296875	92.40464019775391	164.6555480957031	1083.6708984375	61.093994140625	114.8494186401367	
680	6.79	869.2734375	1509.962158203125	262.1309509277344	964.8816528320313	1447.861450195313	426.5167236328125	921.1195678710938	1460.694091796875	83.46092987060547	802.117431640625	1044.593994140625	244.9033355712891	991.4683837890625	1010.227172851563	361.4713439941406	885.2063598632813	602.068115234375	417.0293273925781	883.1660766601563	515.1422729492188	361.2405090332031	791.6130981445313	199.1779022216797	373.7904663085938	784.829345703125	73.09262847900391	307.2232666015625	723.6967163085938	41.73199844360352	261.8292541503906	932.7517700195313	35.1934814453125	294.3700561523438	974.3098754882813	1022.835266113281	114.343505859375	1066.818481445313	628.8355712890625	22.0566349029541	1119.235229492188	548.3775634765625	69.98892211914063	1019.407409667969	283.5913391113281	33.12857818603516	987.9871826171875	112.7046890258789	103.0533447265625	923.9671630859375	82.68986511230469	164.1192626953125	1117.041625976563	59.10426712036133	115.3128890991211	
681	6.8	877.9260864257813	1509.05029296875	261.869384765625	974.2310180664063	1446.559204101563	426.0878601074219	930.0784301757813	1459.557983398438	83.133056640625	810.5755004882813	1043.5263671875	244.5423431396484	999.873291015625	1009.248962402344	361.6652526855469	889.6224365234375	601.8062133789063	417.3280944824219	886.4036254882813	514.8234252929688	361.4111938476563	792.4393310546875	199.5928039550781	373.8345642089844	785.1463012695313	73.46485137939453	307.1264038085938	723.7015380859375	42.48866271972656	261.5268249511719	932.7913818359375	35.16109466552734	294.4638671875	982.8727416992188	1021.814086914063	114.4405364990234	1074.274047851563	627.1658935546875	23.11066627502441	1128.839233398438	548.2662963867188	71.15420532226563	1042.202758789063	279.1571655273438	33.55014419555664	1019.665588378906	106.5191116333008	103.2294387817383	958.232177734375	73.25914001464844	163.3854522705078	1148.352172851563	57.01116180419922	116.0766448974609	
682	6.81	887.3006591796875	1508.013793945313	261.4215698242188	983.4603881835938	1445.083862304688	425.5245971679688	939.3800659179688	1458.404541015625	82.73648071289063	819.1751098632813	1042.2529296875	244.1931610107422	1007.922180175781	1008.085510253906	361.8523254394531	893.90673828125	601.6061401367188	417.47119140625	889.9677124023438	514.6353149414063	361.6209716796875	793.315673828125	200.0540924072266	373.7994689941406	785.4773559570313	73.87464904785156	307.0492858886719	724.3728637695313	43.05126571655273	261.1687927246094	932.9324340820313	35.15043258666992	294.5237731933594	991.5615234375	1020.681396484375	114.531982421875	1081.782470703125	625.1294555664063	24.16777992248535	1138.105834960938	547.7808837890625	72.50930786132813	1065.365966796875	274.9357604980469	33.84969329833984	1051.363159179688	101.0663986206055	103.2182159423828	994.1748657226563	63.77356338500977	162.6381683349609	1179.6240234375	56.01628875732422	116.6149063110352	
683	6.82	896.1813354492188	1506.891235351563	260.9266052246094	992.1848754882813	1443.830932617188	425.0797729492188	948.4063720703125	1457.1865234375	82.28118133544922	827.6990356445313	1040.950805664063	243.8714752197266	1015.968566894531	1006.861206054688	362.0277709960938	898.0587768554688	601.42431640625	417.505615234375	893.73828125	514.5072021484375	361.8418273925781	794.2830810546875	200.5329437255859	373.7166442871094	785.8865966796875	74.251708984375	306.9222717285156	725.109130859375	43.57886505126953	260.7835083007813	933.0245361328125	35.03680419921875	294.5587158203125	1000.419494628906	1019.508117675781	114.5906600952148	1089.532348632813	622.859375	25.27189254760742	1146.72998046875	546.7005004882813	74.20101928710938	1088.202270507813	271.1235656738281	34.26418304443359	1082.78173828125	96.44168853759766	103.1842651367188	1028.4560546875	55.70766448974609	162.2903137207031	1213.172119140625	57.87154388427734	117.1337966918945	
